<svg width="24" height="24" viewBox="0 0 24 24" fill="none" xmlns="http://www.w3.org/2000/svg">
<path fill-rule="evenodd" clip-rule="evenodd" d="M19.3337 12C19.3337 12.2273 19.2371 12.4453 19.0652 12.606C18.8933 12.7667 18.6602 12.857 18.4171 12.857H7.79778L11.7335 16.5352C11.8187 16.6149 11.8863 16.7095 11.9324 16.8136C11.9786 16.9177 12.0023 17.0292 12.0023 17.1419C12.0023 17.2546 11.9786 17.3662 11.9324 17.4703C11.8863 17.5744 11.8187 17.669 11.7335 17.7487C11.6483 17.8284 11.5471 17.8916 11.4358 17.9347C11.3244 17.9778 11.2051 18 11.0846 18C10.9641 18 10.8447 17.9778 10.7334 17.9347C10.622 17.8916 10.5209 17.8284 10.4357 17.7487L4.93627 12.6067C4.85091 12.5271 4.78319 12.4326 4.73698 12.3285C4.69078 12.2243 4.66699 12.1127 4.66699 12C4.66699 11.8873 4.69078 11.7757 4.73698 11.6715C4.78319 11.5674 4.85091 11.4729 4.93627 11.3933L10.4357 6.25132C10.6078 6.0904 10.8412 6 11.0846 6C11.328 6 11.5614 6.0904 11.7335 6.25132C11.9056 6.41224 12.0023 6.6305 12.0023 6.85807C12.0023 7.08565 11.9056 7.3039 11.7335 7.46482L7.79778 11.143H18.4171C18.6602 11.143 18.8933 11.2333 19.0652 11.394C19.2371 11.5547 19.3337 11.7727 19.3337 12Z" fill="#1AA5AA"/>
</svg>
