<svg width="16" height="16" viewBox="0 0 16 16" fill="none" xmlns="http://www.w3.org/2000/svg">
<path d="M5.6836 5.31096L7.59448 1.27253C7.63118 1.19129 7.68853 1.12267 7.75999 1.07449C7.83146 1.02631 7.91417 1.0005 7.99871 1C8.15882 1 8.31894 1.09053 8.40556 1.27253L10.3164 5.31096L14.6019 5.96054C14.7087 5.97845 14.8065 6.03512 14.8787 6.12098C14.9509 6.20685 14.9931 6.31665 14.9983 6.43186C15.0044 6.50857 14.9942 6.58575 14.9684 6.65766C14.9427 6.72958 14.902 6.79436 14.8495 6.84718L11.7671 9.97937L12.4933 14.3939C12.5616 14.8074 12.1783 15.1312 11.8406 14.9464L7.99871 12.8409L4.15857 14.9464C4.1184 14.9687 4.07534 14.9844 4.03082 14.9931C3.73159 15.0491 3.44636 14.756 3.50586 14.3939L4.23206 9.97937L1.1505 6.84718C1.10259 6.79884 1.06451 6.7405 1.03863 6.6758C1.01274 6.6111 0.999594 6.54141 1.00001 6.47106C1.00006 6.3716 1.02579 6.27408 1.07438 6.1892C1.10885 6.12767 1.15584 6.07518 1.21187 6.0356C1.2679 5.99602 1.33154 5.97037 1.39811 5.96054L5.6836 5.31096ZM7.99871 11.7583C8.06933 11.7579 8.13898 11.7759 8.2017 11.8105L11.4267 13.5782L10.8195 9.88511C10.8052 9.80017 10.8106 9.71278 10.8353 9.6306C10.8601 9.54843 10.9033 9.47398 10.9613 9.41379L13.5047 6.82852L9.95946 6.29093C9.88605 6.27911 9.81642 6.24848 9.75653 6.20166C9.69665 6.15485 9.64829 6.09325 9.61561 6.02214L7.99958 2.60809L7.99871 2.61089V11.7573V11.7583Z" fill="#1A8F94"/>
</svg>
